HIERARCHY
ROOT Hips
{
	OFFSET -0.001795 -0.223333 0.028219
	CHANNELS 6 Xposition Yposition Zposition Zrotation Yrotation Xrotation 
	JOINT LeftUpLeg
	{
		OFFSET 0.069520 -0.091406 -0.006815
		CHANNELS 3 Zrotation Yrotation Xrotation
		JOINT LeftLeg
		{
			OFFSET 0.034277 -0.375199 -0.004496
			CHANNELS 3 Zrotation Yrotation Xrotation
			JOINT LeftFoot
			{
				OFFSET -0.013596 -0.397961 -0.043693
				CHANNELS 3 Zrotation Yrotation Xrotation
				JOINT LeftToe
				{
					OFFSET 0.026358 -0.055791 0.119288
					CHANNELS 3 Zrotation Yrotation Xrotation
					End Site
					{
						OFFSET 0.000000 0.000000 0.000000
					}
				}
			}
		}
	}
	JOINT RightUpLeg
	{
		OFFSET -0.067670 -0.090522 -0.004320
		CHANNELS 3 Zrotation Yrotation Xrotation
		JOINT RightLeg
		{
			OFFSET -0.038290 -0.382569 -0.008850
			CHANNELS 3 Zrotation Yrotation Xrotation
			JOINT RightFoot
			{
				OFFSET 0.015774 -0.398415 -0.042312
				CHANNELS 3 Zrotation Yrotation Xrotation
				JOINT RightToe
				{
					OFFSET -0.025372 -0.048144 0.123348
					CHANNELS 3 Zrotation Yrotation Xrotation
					End Site
					{
						OFFSET 0.000000 0.000000 0.000000
					}
				}
			}
		}
	}
	JOINT Spine
	{
		OFFSET -0.002533 0.108963 -0.026696
		CHANNELS 3 Zrotation Yrotation Xrotation
		JOINT Spine1
		{
			OFFSET 0.005487 0.135180 0.001092
			CHANNELS 3 Zrotation Yrotation Xrotation
			JOINT Spine2
			{
				OFFSET 0.001457 0.052922 0.025425
				CHANNELS 3 Zrotation Yrotation Xrotation
				JOINT Neck
				{
					OFFSET -0.002778 0.213870 -0.042857
					CHANNELS 3 Zrotation Yrotation Xrotation
					JOINT Head
					{
						OFFSET 0.005152 0.064970 0.051349
						CHANNELS 3 Zrotation Yrotation Xrotation
						End Site
						{
							OFFSET 0.000000 0.000000 0.000000
						}
					}
				}
				JOINT LeftShoulder
				{
					OFFSET 0.078845 0.121749 -0.034090
					CHANNELS 3 Zrotation Yrotation Xrotation
					JOINT LeftArm
					{
						OFFSET 0.090977 0.030469 -0.008868
						CHANNELS 3 Zrotation Yrotation Xrotation
						JOINT LeftForeArm
						{
							OFFSET 0.259612 -0.012772 -0.027456
							CHANNELS 3 Zrotation Yrotation Xrotation
							JOINT LeftHand
							{
								OFFSET 0.249234 0.008986 -0.001171
								CHANNELS 3 Zrotation Yrotation Xrotation
								End Site
								{
									OFFSET 0.000000 0.000000 0.000000
								}
							}
						}
					}
				}
				JOINT RightShoulder
				{
					OFFSET -0.081759 0.118833 -0.038615
					CHANNELS 3 Zrotation Yrotation Xrotation
					JOINT RightArm
					{
						OFFSET -0.096012 0.032551 -0.009143
						CHANNELS 3 Zrotation Yrotation Xrotation
						JOINT RightForeArm
						{
							OFFSET -0.253742 -0.013329 -0.021401
							CHANNELS 3 Zrotation Yrotation Xrotation
							JOINT RightHand
							{
								OFFSET -0.255298 0.007772 -0.005559
								CHANNELS 3 Zrotation Yrotation Xrotation
								End Site
								{
									OFFSET 0.000000 0.000000 0.000000
								}
							}
						}
					}
				}
			}
		}
	}
}
MOTION
Frames: 6
Frame Time: 0.050000
0.000000 0.942613 0.000000 -1.535166 -7.987236 4.871993 -1.493364 0.491257 4.203829 1.443731 0.269853 -8.793644 -5.953350 -11.301821 2.734281 0.000000 0.000000 0.000000 0.507478 -0.088014 0.586966 0.102390 -0.089572 -2.112572 3.839539 8.167633 1.964439 0.000000 0.000000 0.000000 2.621185 0.115974 -2.654255 -3.665205 1.826228 1.802584 -0.995490 2.820092 6.130590 4.719654 -1.336889 -20.433379 0.000000 0.000000 0.000000 -28.418063 -8.948755 3.460905 -29.336898 3.039361 -4.163750 4.648296 -16.574063 -0.025650 0.000000 0.000000 0.000000 25.500311 4.299836 -0.188801 31.282854 -10.850468 -5.265383 -7.626326 11.887663 -0.271652 0.000000 0.000000 0.000000 
0.002260 0.941667 0.002597 -1.474365 -8.017906 5.006497 -0.496975 0.518664 4.911320 -0.062504 0.412128 -10.446430 -8.276853 -14.704559 4.782008 0.000000 0.000000 0.000000 0.877035 0.054186 -1.016795 -0.919071 0.118360 0.728146 3.374894 8.163838 0.594477 0.000000 0.000000 0.000000 2.540768 0.113613 -2.647480 -3.291018 1.707261 3.479035 -2.657722 3.006633 4.701413 5.971339 -1.768427 -21.625654 0.000000 0.000000 0.000000 -26.445315 -8.184031 2.647672 -29.454926 3.445603 -4.126644 5.670455 -18.247075 -0.199880 0.000000 0.000000 0.000000 25.927385 3.251634 -0.678721 31.290719 -11.547300 -5.397884 -9.407185 13.245347 -0.481932 0.000000 0.000000 0.000000 
0.004836 0.939770 0.004895 -1.240486 -7.958561 5.352967 -0.194625 0.481623 4.726059 -0.894652 0.393018 -9.301359 -8.448922 -16.264965 2.995956 0.000000 0.000000 0.000000 0.816306 0.275166 -3.126061 -0.944089 0.288001 3.848972 2.575759 8.051583 -1.665414 0.000000 0.000000 0.000000 2.931084 0.094409 -2.455374 -3.825311 1.875830 1.188053 -2.525940 4.005775 6.556451 7.562345 -2.725738 -20.700814 0.000000 0.000000 0.000000 -24.654259 -9.117744 3.021698 -30.267273 3.685154 -4.326721 4.233203 -18.132172 0.008382 0.000000 0.000000 0.000000 24.730161 3.408719 -0.115747 33.301433 -11.603810 -5.993892 -9.274484 12.049320 -0.388649 0.000000 0.000000 0.000000 
0.007642 0.938593 0.007103 -1.280692 -7.809650 5.647438 0.926874 0.495376 5.516922 -1.851540 0.447422 -9.810561 -9.969207 -19.239417 3.180021 0.000000 0.000000 0.000000 0.267152 0.680133 -6.886387 0.313341 0.470864 10.486432 1.615099 7.593654 -4.109086 0.000000 0.000000 0.000000 2.710881 0.077268 -2.249274 -3.542362 1.742632 1.385298 -2.745447 4.459778 6.490973 8.022405 -2.708086 -22.009996 0.000000 0.000000 0.000000 -24.669087 -8.859739 2.647364 -29.893851 3.926759 -4.257693 3.289298 -18.354489 0.143569 0.000000 0.000000 0.000000 25.177349 3.325283 0.021283 34.378829 -11.816561 -6.307849 -11.391936 11.878221 -0.537811 0.000000 0.000000 0.000000 
0.010614 0.937139 0.008852 -0.898281 -7.092329 4.756349 1.158289 0.568559 6.449346 -2.741685 0.462278 -9.194547 -9.952589 -19.697339 2.550394 0.000000 0.000000 0.000000 -0.309004 1.120663 -11.112466 1.132613 0.830615 19.993419 0.803326 6.784722 -5.918838 0.000000 0.000000 0.000000 2.789886 -0.005218 -0.960720 -3.412123 1.715878 2.480668 -3.130114 4.345500 5.483763 8.625220 -3.102223 -21.139530 0.000000 0.000000 0.000000 -25.095015 -9.591088 2.891102 -29.717578 4.439953 -4.250203 3.233622 -18.623305 0.144108 0.000000 0.000000 0.000000 25.497860 3.727173 0.365061 35.271961 -9.842160 -5.985717 -13.144147 11.025313 -0.596971 0.000000 0.000000 0.000000 
0.013313 0.936731 0.010498 -0.641351 -6.384513 3.668153 1.236740 0.701923 7.930355 -2.970464 0.460989 -8.902708 -10.804651 -21.279231 2.793424 0.000000 0.000000 0.000000 -0.738220 1.522076 -15.115286 1.985799 1.070189 28.941265 0.413175 6.467988 -7.021580 0.000000 0.000000 0.000000 2.066314 -0.128215 1.406576 -3.238524 1.583823 1.245010 -2.518403 3.961191 6.910224 9.013987 -2.968230 -23.756939 0.000000 0.000000 0.000000 -25.643657 -10.080949 3.322822 -29.850283 4.479185 -4.378709 2.707625 -19.222836 0.240047 0.000000 0.000000 0.000000 25.291667 4.483036 0.816391 36.092952 -7.379525 -5.590255 -14.268775 11.982354 -0.764253 0.000000 0.000000 0.000000 
